<svg xmlns="http://www.w3.org/2000/svg" viewBox="0 0 64 64" role="img" aria-labelledby="title">
  <title>Premier League style lion mark</title>
  <g fill="#4b136b">
    <path d="M27 10l3.5 5.5L36 10l1.4 7.3 5.9-3.2-1.8 7 6.6 1.8-5.4 4.2 2.9 4.7-6.3-.8-1.9 6-3.9-4.2-5.1 4.5-1.5-6.6-6.5.6 3.4-5.3-5.3-3.6 6.3-1.6-1.6-6.8 5.6 3.1L27 10Z"/>
    <path d="M31.6 18.2c-7 0-12.8 5.7-12.8 12.8 0 3.1 1.1 6 3 8.2l-2.2 8.7 7.1-2.8c1.6.6 3.2.9 4.9.9 8.8 0 15.9-6.5 15.9-14.5 0-7.4-7.1-13.3-15.9-13.3Zm-5.1 12.1c0-2.3 1.9-4.2 4.2-4.2h3.8c2.2 0 4 1.8 4 4v1.7c0 1.4-.7 2.7-1.8 3.4l-2.2 1.4 2.4 3.9h-5.7l-2.3-4h-.8v4H26V30.3Zm5.1-13.8c3.2 0 6.2.8 8.7 2.3 1.8-1 3-2.9 3-5.1 0-1.1-.3-2.2-.9-3.1-1.8 1.4-4 2.1-6.3 2.1-1.5 0-2.9-.3-4.2-.9-1.3.6-2.8.9-4.2.9-2.3 0-4.5-.8-6.3-2.1-.6.9-.9 2-.9 3.1 0 2.2 1.2 4.1 3 5.1 2.5-1.5 5.5-2.3 8.1-2.3Z"/>
    <path d="M30.8 30v3.2h2.5c1 0 1.8-.7 1.8-1.6V31c0-.6-.5-1-1.1-1h-3.2Z"/>
    <circle cx="40.8" cy="27.5" r="1.5"/>
    <path d="M18.3 51.8c2.1-1.4 5.2-2.5 8-2.8 2.2 2.1 5.3 3.4 8.7 3.4 5.5 0 10.2-3.2 12.2-7.8l3.8.8c-2.8 8.5-10.4 14.1-19.4 14.1-5 0-9.7-1.8-13.3-5.1Z"/>
  </g>
</svg>
